<svg width="622" height="832" viewBox="0 0 622 832" fill="none" xmlns="http://www.w3.org/2000/svg">
<path d="M2.5 2.5H513.5V769.5H513.448H513.353H513.257H513.159H513.059H512.958H512.855H512.75H512.643H512.535H512.425H512.313H512.199H512.084H511.966H511.848H511.727H511.604H511.48H511.354H511.226H511.097H510.965H510.832H510.697H510.561H510.422H510.282H510.14H509.996H509.851H509.703H509.554H509.403H509.251H509.096H508.94H508.782H508.622H508.46H508.297H508.132H507.964H507.796H507.625H507.452H507.278H507.102H506.924H506.744H506.563H506.38H506.194H506.007H505.819H505.628H505.435H505.241H505.045H504.847H504.647H504.446H504.242H504.037H503.83H503.621H503.411H503.198H502.984H502.767H502.549H502.329H502.107H501.884H501.658H501.431H501.202H500.971H500.738H500.503H500.267H500.028H499.788H499.546H499.302H499.056H498.808H498.558H498.307H498.053H497.798H497.541H497.282H497.021H496.758H496.494H496.227H495.959H495.689H495.416H495.142H494.866H494.589H494.309H494.027H493.744H493.458H493.171H492.882H492.591H492.298H492.003H491.706H491.407H491.107H490.804H490.5H490.194H489.885H489.575H489.263H488.949H488.633H488.315H487.996H487.674H487.35H487.025H486.697H486.368H486.037H485.703H485.368H485.031H484.692H484.351H484.008H483.663H483.317H482.968H482.617H482.265H481.91H481.553H481.195H480.835H480.472H480.108H479.742H479.373H479.003H478.631H478.257H477.881H477.503H477.123H476.741H476.357H475.971H475.583H475.193H474.801H474.407H474.011H473.614H473.214H472.812H472.408H472.003H471.595H471.185H470.773H470.36H469.944H469.526H469.107H468.685H468.261H467.836H467.408H466.978H466.547H466.113H465.677H465.24H464.8H464.358H463.915H463.469H463.021H462.571H462.12H461.666H461.21H460.752H460.292H459.83H459.366H458.9H458.432H457.962H457.49H457.016H456.54H456.062H455.582H455.099H454.615H454.129H453.64H453.15H452.657H452.163H451.666H451.168H450.667H450.164H449.659H449.152H448.643H448.133H447.619H447.104H446.587H446.068H445.547H445.023H444.498H443.97H443.441H442.909H442.375H441.839H441.301H440.761H440.219H439.675H439.129H438.581H438.03H437.478H436.923H436.366H435.807H435.247H434.684H434.118H433.551H432.982H432.411H431.837H431.261H430.684H430.104H429.522H428.938H428.352H427.763H427.173H426.58H425.986H425.389H424.79H424.189H423.586H422.981H422.373H421.764H421.152H420.538H419.922H419.304H418.684H418.062H417.437H416.811H416.182H415.551H414.918H414.283H413.645H413.006H412.364H411.72H411.074H410.426H409.776H409.124H408.469H407.812H407.153H406.492H405.829H405.163H404.496H403.826H403.154H402.48H401.804H401.125H400.445H399.762H399.077H398.39H397.7H397.009H396.315H395.619H394.921H394.22H393.518H392.813H392.106H391.397H390.686H389.972H389.257H388.539H387.819H387.096H386.372H385.645H384.916H384.185H383.452H382.716H381.978H381.238H380.496H379.751H379.005H378.256H377.505H376.751H375.996H375.238H374.478H373.716H372.951H372.184H371.415H370.644H369.871H369.095H368.317H367.537H366.754H365.97H365.183H364.393H363.602H362.808H362.012H361.214H360.414H359.611H358.806H357.999H357.189H356.377H355.563H354.747H353.929H353.108H352.285H351.459H350.631H349.802H348.969H348.135H347.298H346.459H345.618H344.774H343.928H343.08H342.229H341.377H340.521H339.664H338.804H337.942H337.078H336.212H335.343H334.472H333.598H332.722H331.844H330.964H330.081H329.196H328.309H327.419H326.527H325.633H324.736H323.837H322.936H322.032H321.127H320.218H319.308H318.395H317.48H316.562H315.642H314.72H313.796H312.869H311.939H311.008H310.074H309.138H308.199H307.258H306.315H305.369H304.421H303.471H302.518H301.563H300.606H299.646H298.684H297.719H296.752H295.783H294.812H293.838H292.861H291.883H290.902H289.918H288.932H287.944H286.954H285.961H284.965H283.968H282.968H281.965H280.96H279.953H278.943H277.931H276.917H275.9H274.881H273.859H272.835H271.809H270.78H269.749H268.715H267.679H266.641H265.6H264.485H263.372H262.263H261.155H260.051H258.949H257.849H256.753H255.659H254.567H253.478H252.392H251.309H250.228H249.149H248.074H247.001H245.93H244.862H243.797H242.734H241.674H240.617H239.562H238.51H237.46H236.413H235.369H234.327H233.287H232.251H231.217H230.185H229.156H228.13H227.106H226.085H225.066H224.05H223.037H222.026H221.018H220.012H219.009H218.008H217.01H216.014H215.021H214.031H213.043H212.058H211.075H210.095H209.117H208.142H207.17H206.2H205.232H204.267H203.305H202.345H201.388H200.433H199.481H198.531H197.584H196.639H195.697H194.757H193.82H192.886H191.953H191.024H190.097H189.172H188.25H187.331H186.414H185.499H184.587H183.678H182.771H181.866H180.964H180.064H179.167H178.273H177.381H176.491H175.604H174.719H173.837H172.957H172.08H171.205H170.333H169.463H168.596H167.731H166.869H166.009H165.151H164.296H163.444H162.594H161.746H160.901H160.058H159.218H158.38H157.544H156.711H155.881H155.053H154.227H153.404H152.583H151.765H150.949H150.135H149.324H148.516H147.709H146.906H146.104H145.305H144.509H143.715H142.923H142.134H141.347H140.562H139.78H139H138.223H137.448H136.676H135.906H135.138H134.373H133.61H132.849H132.091H131.335H130.582H129.831H129.082H128.336H127.592H126.851H126.111H125.375H124.64H123.908H123.179H122.451H121.726H121.004H120.284H119.566H118.85H118.137H117.426H116.718H116.012H115.308H114.607H113.908H113.211H112.516H111.824H111.135H110.447H109.762H109.08H108.399H107.721H107.045H106.372H105.701H105.032H104.365H103.701H103.039H102.38H101.723H101.068H100.415H99.7648H99.1168H98.4711H97.8277H97.1865H96.5477H95.9112H95.2769H94.645H94.0153H93.3879H92.7628H92.14H91.5195H90.9012H90.2852H89.6715H89.0601H88.4509H87.844H87.2394H86.6371H86.037H85.4391H84.8436H84.2502H83.6592H83.0704H82.4838H81.8995H81.3175H80.7377H80.1601H79.5848H79.0117H78.4409H77.8723H77.3059H76.7418H76.1799H75.6203H75.0628H74.5076H73.9547H73.4039H72.8554H72.3091H71.765H71.2231H70.6834H70.146H69.6108H69.0777H68.5469H68.0183H67.4919H66.9677H66.4457H65.9259H65.4083H64.8929H64.3796H63.8686H63.3598H62.8531H62.3486H61.8464H61.3463H60.8483H60.3526H59.859H59.3677H58.8784H58.3914H57.9065H57.4238H56.9433H56.4649H55.9887H55.5146H55.0427H54.573H54.1054H53.64H53.1767H52.7156H52.2566H51.7998H51.3451H50.8926H50.4422H49.9939H49.5478H49.1038H48.6619H48.2222H47.7846H47.3491H46.9158H46.4846H46.0555H45.6285H45.2037H44.7809H44.3603H43.9418H43.5254H43.1111H42.6989H42.2889H41.8809H41.475H41.0713H40.6696H40.27H39.8726H39.4772H39.0839H38.6927H38.3036H37.9166H37.5317H37.1488H36.768H36.3894H36.0127H35.6382H35.2657H34.8953H34.527H34.1608H33.7966H33.4345H33.0744H32.7164H32.3605H32.0066H31.6548H31.305H30.9573H30.6116H30.268H29.9264H29.5869H29.2494H28.914H28.5806H28.2492H27.9199H27.5926H27.2674H26.9441H26.6229H26.3037H25.9866H25.6715H25.3584H25.0473H24.7382H24.4312H24.1261H23.8231H23.5221H23.2231H22.9261H22.6311H22.3381H22.0471H21.7581H21.4712H21.1862H20.9032H20.6222H20.3431H20.0661H19.7911H19.518H19.247H18.9779H18.7108H18.4456H18.1825H17.9213H17.6621H17.4049H17.1496H16.8963H16.645H16.3956H16.1482H15.9027H15.6593H15.4177H15.1781H14.9405H14.7048H14.4711H14.2393H14.0095H13.7816H13.5557H13.3317H13.1096H12.8895H12.6713H12.455H12.2407H12.0283H11.8178H11.6093H11.4026H11.1979H10.9952H10.7943H10.5954H10.3983H10.2032H10.01H9.81869H9.6293H9.44182H9.25624H9.07256H8.89078H8.71091H8.53292H8.35684H8.18264H8.01034H7.83993H7.6714H7.50476H7.34001H7.17714H7.01614H6.85703H6.69979H6.54443H6.39095H6.23933H6.08958H5.94171H5.79569H5.65155H5.50926H5.36883H5.23027H5.09356H4.95871H4.82571H4.69456H4.56526H4.43781H4.3122H4.18844H4.06653H3.94645H3.82821H3.71181H3.59725H3.48452H3.37362H3.26455H3.15731H3.05189H2.9483H2.84653H2.74659H2.64846H2.55215H2.5V2.5Z" stroke="#CCA76E" stroke-width="5"/>
<path d="M108.5 62.5H619.5V829.5H619.448H619.353H619.257H619.159H619.059H618.958H618.855H618.75H618.643H618.535H618.425H618.313H618.199H618.084H617.966H617.848H617.727H617.604H617.48H617.354H617.226H617.097H616.965H616.832H616.697H616.561H616.422H616.282H616.14H615.996H615.851H615.703H615.554H615.403H615.251H615.096H614.94H614.782H614.622H614.46H614.297H614.132H613.964H613.796H613.625H613.452H613.278H613.102H612.924H612.744H612.563H612.38H612.194H612.007H611.819H611.628H611.435H611.241H611.045H610.847H610.647H610.446H610.242H610.037H609.83H609.621H609.411H609.198H608.984H608.767H608.549H608.329H608.107H607.884H607.658H607.431H607.202H606.971H606.738H606.503H606.267H606.028H605.788H605.546H605.302H605.056H604.808H604.558H604.307H604.053H603.798H603.541H603.282H603.021H602.758H602.494H602.227H601.959H601.689H601.416H601.142H600.866H600.589H600.309H600.027H599.744H599.458H599.171H598.882H598.591H598.298H598.003H597.706H597.407H597.107H596.804H596.5H596.194H595.885H595.575H595.263H594.949H594.633H594.315H593.996H593.674H593.35H593.025H592.697H592.368H592.037H591.703H591.368H591.031H590.692H590.351H590.008H589.663H589.317H588.968H588.617H588.265H587.91H587.553H587.195H586.835H586.472H586.108H585.742H585.373H585.003H584.631H584.257H583.881H583.503H583.123H582.741H582.357H581.971H581.583H581.193H580.801H580.407H580.011H579.614H579.214H578.812H578.408H578.003H577.595H577.185H576.773H576.36H575.944H575.526H575.107H574.685H574.261H573.836H573.408H572.978H572.547H572.113H571.677H571.24H570.8H570.358H569.915H569.469H569.021H568.571H568.12H567.666H567.21H566.752H566.292H565.83H565.366H564.9H564.432H563.962H563.49H563.016H562.54H562.062H561.582H561.099H560.615H560.129H559.64H559.15H558.657H558.163H557.666H557.168H556.667H556.164H555.659H555.152H554.643H554.133H553.619H553.104H552.587H552.068H551.547H551.023H550.498H549.97H549.441H548.909H548.375H547.839H547.301H546.761H546.219H545.675H545.129H544.581H544.03H543.478H542.923H542.366H541.807H541.247H540.684H540.118H539.551H538.982H538.411H537.837H537.261H536.684H536.104H535.522H534.938H534.352H533.763H533.173H532.58H531.986H531.389H530.79H530.189H529.586H528.981H528.373H527.764H527.152H526.538H525.922H525.304H524.684H524.062H523.437H522.811H522.182H521.551H520.918H520.283H519.645H519.006H518.364H517.72H517.074H516.426H515.776H515.124H514.469H513.812H513.153H512.492H511.829H511.163H510.496H509.826H509.154H508.48H507.804H507.125H506.445H505.762H505.077H504.39H503.7H503.009H502.315H501.619H500.921H500.22H499.518H498.813H498.106H497.397H496.686H495.972H495.257H494.539H493.819H493.096H492.372H491.645H490.916H490.185H489.452H488.716H487.978H487.238H486.496H485.751H485.005H484.256H483.505H482.751H481.996H481.238H480.478H479.716H478.951H478.184H477.415H476.644H475.871H475.095H474.317H473.537H472.754H471.97H471.183H470.393H469.602H468.808H468.012H467.214H466.414H465.611H464.806H463.999H463.189H462.377H461.563H460.747H459.929H459.108H458.285H457.459H456.631H455.802H454.969H454.135H453.298H452.459H451.618H450.774H449.928H449.08H448.229H447.377H446.521H445.664H444.804H443.942H443.078H442.212H441.343H440.472H439.598H438.722H437.844H436.964H436.081H435.196H434.309H433.419H432.527H431.633H430.736H429.837H428.936H428.032H427.127H426.218H425.308H424.395H423.48H422.562H421.642H420.72H419.796H418.869H417.939H417.008H416.074H415.138H414.199H413.258H412.315H411.369H410.421H409.471H408.518H407.563H406.606H405.646H404.684H403.719H402.752H401.783H400.812H399.838H398.861H397.883H396.902H395.918H394.932H393.944H392.954H391.961H390.965H389.968H388.968H387.965H386.96H385.953H384.943H383.931H382.917H381.9H380.881H379.859H378.835H377.809H376.78H375.749H374.715H373.679H372.641H371.6H370.485H369.372H368.263H367.155H366.051H364.949H363.849H362.753H361.659H360.567H359.478H358.392H357.309H356.228H355.149H354.074H353.001H351.93H350.862H349.797H348.734H347.674H346.617H345.562H344.51H343.46H342.413H341.369H340.327H339.287H338.251H337.217H336.185H335.156H334.13H333.106H332.085H331.066H330.05H329.037H328.026H327.018H326.012H325.009H324.008H323.01H322.014H321.021H320.031H319.043H318.058H317.075H316.095H315.117H314.142H313.17H312.2H311.232H310.267H309.305H308.345H307.388H306.433H305.481H304.531H303.584H302.639H301.697H300.757H299.82H298.886H297.953H297.024H296.097H295.172H294.25H293.331H292.414H291.499H290.587H289.678H288.771H287.866H286.964H286.064H285.167H284.273H283.381H282.491H281.604H280.719H279.837H278.957H278.08H277.205H276.333H275.463H274.596H273.731H272.869H272.009H271.151H270.296H269.444H268.594H267.746H266.901H266.058H265.218H264.38H263.544H262.711H261.881H261.053H260.227H259.404H258.583H257.765H256.949H256.135H255.324H254.516H253.709H252.906H252.104H251.305H250.509H249.715H248.923H248.134H247.347H246.562H245.78H245H244.223H243.448H242.676H241.906H241.138H240.373H239.61H238.849H238.091H237.335H236.582H235.831H235.082H234.336H233.592H232.851H232.111H231.375H230.64H229.908H229.179H228.451H227.726H227.004H226.284H225.566H224.85H224.137H223.426H222.718H222.012H221.308H220.607H219.908H219.211H218.516H217.824H217.135H216.447H215.762H215.08H214.399H213.721H213.045H212.372H211.701H211.032H210.365H209.701H209.039H208.38H207.723H207.068H206.415H205.765H205.117H204.471H203.828H203.187H202.548H201.911H201.277H200.645H200.015H199.388H198.763H198.14H197.519H196.901H196.285H195.672H195.06H194.451H193.844H193.239H192.637H192.037H191.439H190.844H190.25H189.659H189.07H188.484H187.9H187.317H186.738H186.16H185.585H185.012H184.441H183.872H183.306H182.742H182.18H181.62H181.063H180.508H179.955H179.404H178.855H178.309H177.765H177.223H176.683H176.146H175.611H175.078H174.547H174.018H173.492H172.968H172.446H171.926H171.408H170.893H170.38H169.869H169.36H168.853H168.349H167.846H167.346H166.848H166.353H165.859H165.368H164.878H164.391H163.907H163.424H162.943H162.465H161.989H161.515H161.043H160.573H160.105H159.64H159.177H158.716H158.257H157.8H157.345H156.893H156.442H155.994H155.548H155.104H154.662H154.222H153.785H153.349H152.916H152.485H152.055H151.629H151.204H150.781H150.36H149.942H149.525H149.111H148.699H148.289H147.881H147.475H147.071H146.67H146.27H145.873H145.477H145.084H144.693H144.304H143.917H143.532H143.149H142.768H142.389H142.013H141.638H141.266H140.895H140.527H140.161H139.797H139.434H139.074H138.716H138.36H138.007H137.655H137.305H136.957H136.612H136.268H135.926H135.587H135.249H134.914H134.581H134.249H133.92H133.593H133.267H132.944H132.623H132.304H131.987H131.671H131.358H131.047H130.738H130.431H130.126H129.823H129.522H129.223H128.926H128.631H128.338H128.047H127.758H127.471H127.186H126.903H126.622H126.343H126.066H125.791H125.518H125.247H124.978H124.711H124.446H124.182H123.921H123.662H123.405H123.15H122.896H122.645H122.396H122.148H121.903H121.659H121.418H121.178H120.941H120.705H120.471H120.239H120.01H119.782H119.556H119.332H119.11H118.889H118.671H118.455H118.241H118.028H117.818H117.609H117.403H117.198H116.995H116.794H116.595H116.398H116.203H116.01H115.819H115.629H115.442H115.256H115.073H114.891H114.711H114.533H114.357H114.183H114.01H113.84H113.671H113.505H113.34H113.177H113.016H112.857H112.7H112.544H112.391H112.239H112.09H111.942H111.796H111.652H111.509H111.369H111.23H111.094H110.959H110.826H110.695H110.565H110.438H110.312H110.188H110.067H109.946H109.828H109.712H109.597H109.485H109.374H109.265H109.157H109.052H108.948H108.847H108.747H108.648H108.552H108.5V62.5Z" stroke="#2D553E" stroke-width="5"/>
</svg>
