<svg width="35" height="35" viewBox="0 0 35 35" fill="none" xmlns="http://www.w3.org/2000/svg">
<path d="M22.9102 18.535C24.34 17.4101 25.3835 15.8676 25.8958 14.122C26.408 12.3764 26.3634 10.5145 25.7683 8.79544C25.1731 7.07636 24.0569 5.58554 22.5749 4.53038C21.093 3.47522 19.319 2.9082 17.4998 2.9082C15.6806 2.9082 13.9066 3.47522 12.4247 4.53038C10.9428 5.58554 9.82657 7.07636 9.23137 8.79544C8.63618 10.5145 8.5916 12.3764 9.10384 14.122C9.61608 15.8676 10.6597 17.4101 12.0894 18.535C9.63951 19.5165 7.5019 21.1444 5.90445 23.2453C4.307 25.3461 3.30959 27.841 3.01856 30.4641C2.9975 30.6556 3.01436 30.8494 3.06818 31.0344C3.12201 31.2194 3.21174 31.392 3.33227 31.5423C3.57567 31.8459 3.9297 32.0403 4.31648 32.0829C4.70325 32.1254 5.09109 32.0126 5.39466 31.7692C5.69824 31.5258 5.89268 31.1717 5.93523 30.785C6.25546 27.9342 7.61477 25.3014 9.75347 23.3895C11.8922 21.4776 14.6603 20.4206 17.529 20.4206C20.3977 20.4206 23.1658 21.4776 25.3045 23.3895C27.4432 25.3014 28.8025 27.9342 29.1227 30.785C29.1624 31.1433 29.3334 31.4743 29.6027 31.7139C29.872 31.9536 30.2205 32.0851 30.5811 32.0829H30.7415C31.1238 32.0389 31.4732 31.8456 31.7135 31.5451C31.9539 31.2446 32.0658 30.8613 32.0248 30.4787C31.7324 27.8482 30.7296 25.3468 29.124 23.2428C27.5183 21.1387 25.3703 19.5113 22.9102 18.535ZM17.4998 17.4996C16.3461 17.4996 15.2183 17.1574 14.259 16.5165C13.2997 15.8755 12.552 14.9644 12.1105 13.8985C11.669 12.8326 11.5535 11.6597 11.7786 10.5282C12.0036 9.39664 12.5592 8.35723 13.375 7.54143C14.1908 6.72562 15.2302 6.17005 16.3618 5.94497C17.4933 5.71989 18.6662 5.83541 19.7321 6.27692C20.798 6.71843 21.7091 7.4661 22.3501 8.42539C22.991 9.38468 23.3331 10.5125 23.3331 11.6662C23.3331 13.2133 22.7186 14.697 21.6246 15.791C20.5306 16.885 19.0469 17.4996 17.4998 17.4996Z" fill="white"/>
</svg>
