<svg width="35" height="35" viewBox="0 0 35 35" fill="none" xmlns="http://www.w3.org/2000/svg">
<path d="M18.9587 16.042H10.2087C9.82188 16.042 9.45095 16.1956 9.17746 16.4691C8.90397 16.7426 8.75033 17.1136 8.75033 17.5003C8.75033 17.8871 8.90397 18.258 9.17746 18.5315C9.45095 18.805 9.82188 18.9587 10.2087 18.9587H18.9587C19.3454 18.9587 19.7164 18.805 19.9899 18.5315C20.2633 18.258 20.417 17.8871 20.417 17.5003C20.417 17.1136 20.2633 16.7426 19.9899 16.4691C19.7164 16.1956 19.3454 16.042 18.9587 16.042ZM24.792 10.2087H10.2087C9.82188 10.2087 9.45095 10.3623 9.17746 10.6358C8.90397 10.9093 8.75033 11.2802 8.75033 11.667C8.75033 12.0538 8.90397 12.4247 9.17746 12.6982C9.45095 12.9717 9.82188 13.1253 10.2087 13.1253H24.792C25.1788 13.1253 25.5497 12.9717 25.8232 12.6982C26.0967 12.4247 26.2503 12.0538 26.2503 11.667C26.2503 11.2802 26.0967 10.9093 25.8232 10.6358C25.5497 10.3623 25.1788 10.2087 24.792 10.2087ZM27.7087 2.91699H7.29199C6.13167 2.91699 5.01887 3.37793 4.1984 4.1984C3.37793 5.01887 2.91699 6.13167 2.91699 7.29199V21.8753C2.91699 23.0356 3.37793 24.1484 4.1984 24.9689C5.01887 25.7894 6.13167 26.2503 7.29199 26.2503H24.1941L29.5899 31.6607C29.7262 31.7959 29.8878 31.9028 30.0655 31.9754C30.2431 32.048 30.4334 32.0848 30.6253 32.0837C30.8166 32.0886 31.0064 32.0486 31.1795 31.967C31.4458 31.8576 31.6738 31.6718 31.8347 31.433C31.9956 31.1943 32.0822 30.9132 32.0837 30.6253V7.29199C32.0837 6.13167 31.6227 5.01887 30.8022 4.1984C29.9818 3.37793 28.869 2.91699 27.7087 2.91699ZM29.167 27.1107L25.8274 23.7566C25.6911 23.6214 25.5295 23.5145 25.3519 23.4419C25.1742 23.3693 24.9839 23.3326 24.792 23.3337H7.29199C6.90522 23.3337 6.53429 23.18 6.26079 22.9065C5.9873 22.633 5.83366 22.2621 5.83366 21.8753V7.29199C5.83366 6.90522 5.9873 6.53429 6.26079 6.2608C6.53429 5.9873 6.90522 5.83366 7.29199 5.83366H27.7087C28.0954 5.83366 28.4664 5.9873 28.7399 6.2608C29.0133 6.53429 29.167 6.90522 29.167 7.29199V27.1107Z" fill="white"/>
</svg>
