<svg width="35" height="35" viewBox="0 0 35 35" fill="none" xmlns="http://www.w3.org/2000/svg">
<path d="M29.4002 7.29207C27.8544 5.74216 25.8052 4.79619 23.6228 4.62503C21.4405 4.45386 19.2689 5.06879 17.5002 6.35874C15.6447 4.97863 13.3352 4.35282 11.0368 4.60733C8.73835 4.86185 6.62171 5.97779 5.11312 7.73042C3.60452 9.48306 2.81602 11.7422 2.90641 14.0529C2.99679 16.3636 3.95935 18.5543 5.60024 20.1837L14.6565 29.2546C15.4148 30.0009 16.4362 30.4192 17.5002 30.4192C18.5643 30.4192 19.5856 30.0009 20.344 29.2546L29.4002 20.1837C31.103 18.4706 32.0587 16.1533 32.0587 13.7379C32.0587 11.3225 31.103 9.00522 29.4002 7.29207ZM27.344 18.1712L18.2877 27.2275C18.1847 27.3315 18.062 27.4141 17.9269 27.4705C17.7917 27.5269 17.6467 27.5559 17.5002 27.5559C17.3538 27.5559 17.2088 27.5269 17.0736 27.4705C16.9384 27.4141 16.8158 27.3315 16.7127 27.2275L7.65649 18.1275C6.5128 16.9584 5.87238 15.388 5.87238 13.7525C5.87238 12.117 6.5128 10.5466 7.65649 9.37749C8.82192 8.22684 10.3937 7.58165 12.0315 7.58165C13.6692 7.58165 15.2411 8.22684 16.4065 9.37749C16.5421 9.51417 16.7034 9.62267 16.8811 9.6967C17.0588 9.77074 17.2494 9.80886 17.4419 9.80886C17.6344 9.80886 17.825 9.77074 18.0027 9.6967C18.1805 9.62267 18.3418 9.51417 18.4773 9.37749C19.6428 8.22684 21.2146 7.58165 22.8523 7.58165C24.4901 7.58165 26.0619 8.22684 27.2273 9.37749C28.3867 10.5312 29.0482 12.0932 29.07 13.7287C29.0918 15.3642 28.4722 16.9432 27.344 18.1275V18.1712Z" fill="white"/>
</svg>
