<svg width="35" height="35" viewBox="0 0 35 35" fill="none" xmlns="http://www.w3.org/2000/svg">
<path d="M5.83301 17.5003C5.83301 17.8871 5.98665 18.258 6.26014 18.5315C6.53363 18.805 6.90457 18.9587 7.29134 18.9587H18.3601L15.0059 22.2982C14.8692 22.4338 14.7607 22.5951 14.6867 22.7728C14.6127 22.9505 14.5746 23.1411 14.5746 23.3337C14.5746 23.5262 14.6127 23.7168 14.6867 23.8945C14.7607 24.0722 14.8692 24.2335 15.0059 24.3691C15.1415 24.5058 15.3028 24.6143 15.4805 24.6883C15.6582 24.7623 15.8488 24.8004 16.0413 24.8004C16.2339 24.8004 16.4245 24.7623 16.6022 24.6883C16.7799 24.6143 16.9412 24.5058 17.0768 24.3691L22.9101 18.5357C23.0429 18.397 23.1469 18.2335 23.2163 18.0545C23.3622 17.6994 23.3622 17.3012 23.2163 16.9462C23.1469 16.7671 23.0429 16.6036 22.9101 16.4649L17.0768 10.6316C16.9408 10.4956 16.7794 10.3877 16.6017 10.3142C16.424 10.2406 16.2336 10.2027 16.0413 10.2027C15.849 10.2027 15.6586 10.2406 15.481 10.3142C15.3033 10.3877 15.1419 10.4956 15.0059 10.6316C14.87 10.7675 14.7621 10.929 14.6885 11.1066C14.6149 11.2843 14.577 11.4747 14.577 11.667C14.577 11.8593 14.6149 12.0497 14.6885 12.2274C14.7621 12.405 14.87 12.5664 15.0059 12.7024L18.3601 16.042H7.29134C6.90457 16.042 6.53363 16.1956 6.26014 16.4691C5.98665 16.7426 5.83301 17.1136 5.83301 17.5003V17.5003ZM24.7913 2.91699H10.208C9.04769 2.91699 7.93489 3.37793 7.11442 4.1984C6.29394 5.01887 5.83301 6.13167 5.83301 7.29199V11.667C5.83301 12.0538 5.98665 12.4247 6.26014 12.6982C6.53363 12.9717 6.90457 13.1253 7.29134 13.1253C7.67812 13.1253 8.04905 12.9717 8.32254 12.6982C8.59603 12.4247 8.74967 12.0538 8.74967 11.667V7.29199C8.74967 6.90522 8.90332 6.53429 9.17681 6.26079C9.4503 5.9873 9.82123 5.83366 10.208 5.83366H24.7913C25.1781 5.83366 25.549 5.9873 25.8225 6.26079C26.096 6.53429 26.2497 6.90522 26.2497 7.29199V27.7087C26.2497 28.0954 26.096 28.4664 25.8225 28.7399C25.549 29.0133 25.1781 29.167 24.7913 29.167H10.208C9.82123 29.167 9.4503 29.0133 9.17681 28.7399C8.90332 28.4664 8.74967 28.0954 8.74967 27.7087V23.3337C8.74967 22.9469 8.59603 22.576 8.32254 22.3025C8.04905 22.029 7.67812 21.8753 7.29134 21.8753C6.90457 21.8753 6.53363 22.029 6.26014 22.3025C5.98665 22.576 5.83301 22.9469 5.83301 23.3337V27.7087C5.83301 28.869 6.29394 29.9818 7.11442 30.8023C7.93489 31.6227 9.04769 32.0837 10.208 32.0837H24.7913C25.9517 32.0837 27.0645 31.6227 27.8849 30.8023C28.7054 29.9818 29.1663 28.869 29.1663 27.7087V7.29199C29.1663 6.13167 28.7054 5.01887 27.8849 4.1984C27.0645 3.37793 25.9517 2.91699 24.7913 2.91699Z" fill="#FCFAF6"/>
</svg>
