<svg width="176" height="188" viewBox="0 0 176 188" fill="none" xmlns="http://www.w3.org/2000/svg">
<rect y="83.7422" width="104.444" height="141.435" transform="rotate(-53.3006 0 83.7422)" fill="#F6F0FF"/>
<rect x="29.5918" width="58.3147" height="188" fill="#EBDCC8"/>
<path d="M46.1299 111.499V7.83203H55.6411V107.713H86.077C89.1206 107.713 91.9739 107.353 94.4468 106.632C96.9197 105.91 99.0122 105.189 100.534 104.108C102.056 103.206 103.387 101.944 104.719 100.502C105.86 99.0594 106.811 97.7973 107.382 96.7156C107.953 95.6338 108.523 94.5521 108.904 93.1097H113.659L107.382 111.319H46.1299V111.499Z" fill="#1F1B20"/>
<path d="M59.1848 53.0508H125.954L129.948 71.8011H126.144C125.193 69.0967 124.242 66.9332 123.29 65.1303C122.339 63.5077 121.008 61.885 119.296 60.623C117.584 59.1807 115.491 58.2792 113.018 57.7384C110.545 57.1975 107.312 56.8369 103.507 56.8369C103.507 56.8369 91.9034 56.8369 68.696 56.8369V100.648V104.273V108.04V156.718H59.1848V53.0508Z" fill="#2B2A29"/>
</svg>
