<svg width="24" height="25" viewBox="0 0 24 25" fill="none" xmlns="http://www.w3.org/2000/svg">
<path d="M22 7.24392C22.0008 7.11232 21.9756 6.98185 21.9258 6.86002C21.876 6.73818 21.8027 6.62736 21.71 6.53392L17.47 2.29392C17.3766 2.20124 17.2658 2.12792 17.1439 2.07815C17.0221 2.02839 16.8916 2.00316 16.76 2.00392C16.6284 2.00316 16.4979 2.02839 16.3761 2.07815C16.2543 2.12792 16.1435 2.20124 16.05 2.29392L13.22 5.12392L2.29002 16.0539C2.19734 16.1474 2.12401 16.2582 2.07425 16.38C2.02448 16.5019 1.99926 16.6323 2.00002 16.7639V21.0039C2.00002 21.2691 2.10537 21.5235 2.29291 21.711C2.48045 21.8986 2.7348 22.0039 3.00002 22.0039H7.24002C7.37994 22.0115 7.51991 21.9897 7.65084 21.9397C7.78176 21.8897 7.90073 21.8128 8.00002 21.7139L18.87 10.7839L21.71 8.00392C21.8013 7.907 21.8757 7.79546 21.93 7.67392C21.9397 7.59421 21.9397 7.51363 21.93 7.43392C21.9347 7.38737 21.9347 7.34047 21.93 7.29392L22 7.24392ZM6.83002 20.0039H4.00002V17.1739L13.93 7.24392L16.76 10.0739L6.83002 20.0039ZM18.17 8.66392L15.34 5.83392L16.76 4.42392L19.58 7.24392L18.17 8.66392Z" fill="white"/>
</svg>
